<svg width="17" height="16" viewBox="0 0 17 16" fill="none" xmlns="http://www.w3.org/2000/svg">
<path d="M6.82389 6.88889C6.82389 7.15153 6.77216 7.41161 6.67165 7.65426C6.57114 7.89691 6.42382 8.11739 6.23811 8.3031C6.05239 8.48882 5.83191 8.63614 5.58926 8.73665C5.34661 8.83716 5.08654 8.88889 4.82389 8.88889C4.56125 8.88889 4.30118 8.83716 4.05853 8.73665C3.81588 8.63614 3.5954 8.48882 3.40968 8.3031C3.22396 8.11739 3.07664 7.89691 2.97613 7.65426C2.87562 7.41161 2.82389 7.15153 2.82389 6.88889C2.82389 6.35846 3.03461 5.84975 3.40968 5.47468C3.78475 5.0996 4.29346 4.88889 4.82389 4.88889C5.35433 4.88889 5.86303 5.0996 6.23811 5.47468C6.61318 5.84975 6.82389 6.35846 6.82389 6.88889ZM5.71278 6.88889C5.71278 6.65314 5.61913 6.42705 5.45243 6.26035C5.28573 6.09365 5.05964 6 4.82389 6C4.58815 6 4.36205 6.09365 4.19535 6.26035C4.02866 6.42705 3.935 6.65314 3.935 6.88889C3.935 7.12464 4.02866 7.35073 4.19535 7.51743C4.36205 7.68413 4.58815 7.77778 4.82389 7.77778C5.05964 7.77778 5.28573 7.68413 5.45243 7.51743C5.61913 7.35073 5.71278 7.12464 5.71278 6.88889ZM4.82389 13.7778C5.35433 13.7778 5.86303 13.5671 6.23811 13.192C6.61318 12.8169 6.82389 12.3082 6.82389 11.7778C6.82389 11.2473 6.61318 10.7386 6.23811 10.3636C5.86303 9.98849 5.35433 9.77778 4.82389 9.77778C4.29346 9.77778 3.78475 9.98849 3.40968 10.3636C3.03461 10.7386 2.82389 11.2473 2.82389 11.7778C2.82389 12.3082 3.03461 12.8169 3.40968 13.192C3.78475 13.5671 4.29346 13.7778 4.82389 13.7778ZM4.82389 12.6667C4.58815 12.6667 4.36205 12.573 4.19535 12.4063C4.02866 12.2396 3.935 12.0135 3.935 11.7778C3.935 11.542 4.02866 11.3159 4.19535 11.1492C4.36205 10.9825 4.58815 10.8889 4.82389 10.8889C5.05964 10.8889 5.28573 10.9825 5.45243 11.1492C5.61913 11.3159 5.71278 11.542 5.71278 11.7778C5.71278 12.0135 5.61913 12.2396 5.45243 12.4063C5.28573 12.573 5.05964 12.6667 4.82389 12.6667ZM3.37945 2.66667C3.23211 2.66667 3.0908 2.7252 2.98661 2.82939C2.88242 2.93357 2.82389 3.07488 2.82389 3.22222C2.82389 3.36956 2.88242 3.51087 2.98661 3.61506C3.0908 3.71925 3.23211 3.77778 3.37945 3.77778H12.935C13.0823 3.77778 13.2237 3.71925 13.3278 3.61506C13.432 3.51087 13.4906 3.36956 13.4906 3.22222C13.4906 3.07488 13.432 2.93357 13.3278 2.82939C13.2237 2.7252 13.0823 2.66667 12.935 2.66667H3.37945ZM7.71278 7C7.71278 6.69333 7.96167 6.44444 8.26834 6.44444H12.935C13.0823 6.44444 13.2237 6.50298 13.3278 6.60716C13.432 6.71135 13.4906 6.85266 13.4906 7C13.4906 7.14734 13.432 7.28865 13.3278 7.39284C13.2237 7.49702 13.0823 7.55556 12.935 7.55556H8.26834C7.96167 7.55556 7.71278 7.30667 7.71278 7ZM8.26834 11.1111C8.121 11.1111 7.97969 11.1696 7.8755 11.2738C7.77131 11.378 7.71278 11.5193 7.71278 11.6667C7.71278 11.814 7.77131 11.9553 7.8755 12.0595C7.97969 12.1637 8.121 12.2222 8.26834 12.2222H12.935C13.0823 12.2222 13.2237 12.1637 13.3278 12.0595C13.432 11.9553 13.4906 11.814 13.4906 11.6667C13.4906 11.5193 13.432 11.378 13.3278 11.2738C13.2237 11.1696 13.0823 11.1111 12.935 11.1111H8.26834ZM2.935 0C2.19829 0 1.49175 0.292658 0.970819 0.813592C0.449884 1.33453 0.157227 2.04107 0.157227 2.77778V13.2222C0.157227 13.9589 0.449884 14.6655 0.970819 15.1864C1.49175 15.7073 2.19829 16 2.935 16H13.3794C14.1162 16 14.8227 15.7073 15.3436 15.1864C15.8646 14.6655 16.1572 13.9589 16.1572 13.2222V2.77778C16.1572 2.04107 15.8646 1.33453 15.3436 0.813592C14.8227 0.292658 14.1162 0 13.3794 0H2.935ZM1.26834 2.77778C1.26834 2.33575 1.44393 1.91183 1.75649 1.59927C2.06905 1.28671 2.49298 1.11111 2.935 1.11111H13.3794C13.8215 1.11111 14.2454 1.28671 14.558 1.59927C14.8705 1.91183 15.0461 2.33575 15.0461 2.77778V13.2222C15.0461 13.6642 14.8705 14.0882 14.558 14.4007C14.2454 14.7133 13.8215 14.8889 13.3794 14.8889H2.935C2.49298 14.8889 2.06905 14.7133 1.75649 14.4007C1.44393 14.0882 1.26834 13.6642 1.26834 13.2222V2.77778Z" fill="#62C8F4"/>
</svg>
