<svg width="16" height="16" viewBox="0 0 16 16" fill="none" xmlns="http://www.w3.org/2000/svg">
<path d="M14.9772 6.46856L8.44655 0.305295L8.4392 0.298764C8.22937 0.106592 7.95516 0 7.67063 0C7.3861 0 7.11189 0.106592 6.90206 0.298764L6.89471 0.305295L0.364094 6.46856C0.248583 6.57611 0.156599 6.70641 0.0939378 6.85126C0.0312764 6.99612 -0.000703884 7.15238 1.17502e-05 7.3102V14.8571C1.17502e-05 15.1602 0.12042 15.4509 0.334747 15.6653C0.549075 15.8796 0.839765 16 1.14287 16H5.06124C5.36434 16 5.65504 15.8796 5.86936 15.6653C6.08369 15.4509 6.2041 15.1602 6.2041 14.8571V10.9388C6.2041 10.8955 6.2213 10.8539 6.25192 10.8233C6.28254 10.7927 6.32406 10.7755 6.36736 10.7755H8.97961C9.02291 10.7755 9.06444 10.7927 9.09506 10.8233C9.12568 10.8539 9.14288 10.8955 9.14288 10.9388V14.8571C9.14288 15.1602 9.26329 15.4509 9.47761 15.6653C9.69194 15.8796 9.98263 16 10.2857 16H14.2041C14.5072 16 14.7979 15.8796 15.0122 15.6653C15.2266 15.4509 15.347 15.1602 15.347 14.8571V7.3102C15.3469 7.15195 15.3141 6.99544 15.2504 6.85056C15.1868 6.70568 15.0937 6.57561 14.9772 6.46856ZM14.3674 14.8571C14.3674 14.9004 14.3502 14.942 14.3196 14.9726C14.2889 15.0032 14.2474 15.0204 14.2041 15.0204H10.2857C10.2424 15.0204 10.2009 15.0032 10.1703 14.9726C10.1397 14.942 10.1225 14.9004 10.1225 14.8571V10.9388C10.1225 10.6357 10.0021 10.345 9.78773 10.1307C9.57341 9.91632 9.28272 9.79591 8.97961 9.79591H6.36736C6.06426 9.79591 5.77357 9.91632 5.55924 10.1307C5.34491 10.345 5.22451 10.6357 5.22451 10.9388V14.8571C5.22451 14.9004 5.2073 14.942 5.17669 14.9726C5.14607 15.0032 5.10454 15.0204 5.06124 15.0204H1.14287C1.09957 15.0204 1.05804 15.0032 1.02742 14.9726C0.996805 14.942 0.979604 14.9004 0.979604 14.8571V7.3102C0.979555 7.28748 0.984249 7.26499 0.993386 7.24419C1.00252 7.22339 1.0159 7.20472 1.03267 7.18938L1.04001 7.18285L7.56573 1.02121C7.59547 0.995261 7.63361 0.980961 7.67308 0.980961C7.71255 0.980961 7.75069 0.995261 7.78043 1.02121L14.307 7.18367L14.3135 7.1902C14.3304 7.20546 14.3439 7.2241 14.3532 7.2449C14.3625 7.26571 14.3673 7.28823 14.3674 7.31101V14.8571Z" fill="#56C3F1"/>
</svg>
