<svg width="17" height="17" viewBox="0 0 17 17" fill="none" xmlns="http://www.w3.org/2000/svg">
<path d="M7.32362 5.89189H3.76807M3.76807 3.22522H6.43473M14.4347 13.8919L11.5655 11.9791C10.8921 11.5301 10.0055 11.5686 9.37353 12.0742V12.0742C8.69476 12.6172 7.73026 12.6172 7.05149 12.0742L3.76807 9.44744M12.2125 7.66966C11.6231 7.66966 11.0579 7.43554 10.6412 7.01879C10.2244 6.60204 9.99029 6.03681 9.99029 5.44744C9.99029 4.85807 10.2244 4.29284 10.6412 3.87609C11.0579 3.45935 11.6231 3.22522 12.2125 3.22522C12.8019 3.22522 13.3671 3.45935 13.7839 3.87609C14.2006 4.29284 14.4347 4.85807 14.4347 5.44744C14.4347 6.03681 14.2006 6.60204 13.7839 7.01879C13.3671 7.43554 12.8019 7.66966 12.2125 7.66966Z" stroke="#62C8F4" stroke-linecap="round" stroke-linejoin="round"/>
<path d="M1.10156 15.0586V1.05859C1.10156 0.925985 1.15424 0.798809 1.24801 0.70504C1.34178 0.611272 1.46895 0.558594 1.60156 0.558594H15.6016C15.7342 0.558594 15.8613 0.611272 15.9551 0.70504C16.0489 0.798809 16.1016 0.925985 16.1016 1.05859V15.0586C16.1016 15.1912 16.0489 15.3184 15.9551 15.4121C15.8613 15.5059 15.7342 15.5586 15.6016 15.5586H1.60156C1.46895 15.5586 1.34178 15.5059 1.24801 15.4121C1.15424 15.3184 1.10156 15.1912 1.10156 15.0586Z" stroke="#62C8F4"/>
</svg>
