<svg width="42" height="43" viewBox="0 0 42 43" fill="none" xmlns="http://www.w3.org/2000/svg">
<g clip-path="url(#clip0_1_4737)">
<path d="M14.6311 1.88155C10.4346 3.33734 6.81562 6.10047 4.30562 9.76509C1.79562 13.4297 0.526938 17.8026 0.685917 22.2416C0.844897 26.6805 2.42316 30.9515 5.18889 34.4272C7.95462 37.9029 11.762 40.4 16.0519 41.5519C19.5297 42.4493 23.1735 42.4887 26.67 41.6667C29.8374 40.9552 32.7658 39.4334 35.1684 37.2501C37.669 34.9085 39.4841 31.9295 40.4184 28.6336C41.4337 25.0493 41.6144 21.2801 40.9467 17.6151H21.4167V25.7166H32.7272C32.5011 27.0087 32.0167 28.2419 31.303 29.3424C30.5892 30.443 29.6607 31.3882 28.5731 32.1216C27.1922 33.0355 25.6352 33.6502 24.0023 33.9262C22.3648 34.2308 20.6852 34.2308 19.0477 33.9262C17.3878 33.5835 15.8177 32.8984 14.4375 31.9148C12.2199 30.345 10.5547 28.1149 9.67968 25.5426C8.7901 22.9222 8.7901 20.0814 9.67968 17.4609C10.3026 15.6241 11.3322 13.9517 12.6919 12.5686C14.2478 10.9567 16.2177 9.80445 18.3854 9.23837C20.553 8.67228 22.8347 8.7142 24.9802 9.35952C26.6562 9.87377 28.1889 10.7727 29.4558 11.9845C30.7311 10.7158 32.0042 9.44374 33.2752 8.16843C33.9314 7.48265 34.6467 6.82968 35.2931 6.12749C33.3589 4.32778 31.0887 2.9273 28.6125 2.00624C24.1031 0.368863 19.169 0.32486 14.6311 1.88155Z" fill="white"/>
<path d="M14.6311 1.88156C19.1686 0.32381 24.1027 0.366654 28.6125 2.00297C31.0892 2.93028 33.3583 4.33751 35.2898 6.1439C34.6336 6.84609 33.9412 7.50234 33.2719 8.18484C31.9987 9.45578 30.7267 10.7223 29.4558 11.9845C28.1889 10.7727 26.6562 9.87378 24.9802 9.35953C22.8354 8.71194 20.5538 8.6676 18.3856 9.23137C16.2173 9.79514 14.2462 10.9452 12.6886 12.5555C11.329 13.9386 10.2993 15.611 9.67641 17.4478L2.87437 12.1814C5.30909 7.35325 9.52464 3.66008 14.6311 1.88156Z" fill="#E33629"/>
<path d="M1.06969 17.3986C1.43503 15.5866 2.04201 13.8318 2.87438 12.1814L9.67641 17.4609C8.78683 20.0814 8.78683 22.9222 9.67641 25.5426C7.41016 27.2926 5.14282 29.0514 2.87438 30.8189C0.79128 26.6724 0.155971 21.948 1.06969 17.3986Z" fill="#F8BD00"/>
<path d="M21.4167 17.6119H40.9467C41.6144 21.2768 41.4337 25.046 40.4184 28.6303C39.4841 31.9263 37.669 34.9052 35.1684 37.2469C32.9733 35.5341 30.7683 33.8344 28.5731 32.1216C29.6614 31.3875 30.5903 30.4412 31.3041 29.3395C32.0179 28.2378 32.502 27.0033 32.7272 25.71H21.4167C21.4134 23.0128 21.4167 20.3123 21.4167 17.6119Z" fill="#587DBD"/>
<path d="M2.87109 30.8189C5.13953 29.0689 7.40687 27.3101 9.67312 25.5426C10.5499 28.1158 12.2174 30.3461 14.4375 31.9148C15.822 32.8939 17.3955 33.5733 19.0575 33.9098C20.695 34.2144 22.3747 34.2144 24.0122 33.9098C25.645 33.6338 27.202 33.0191 28.583 32.1051C30.7781 33.818 32.9831 35.5176 35.1783 37.2305C32.776 39.4149 29.8476 40.9379 26.6798 41.6503C23.1834 42.4723 19.5396 42.4329 16.0617 41.5355C13.3111 40.801 10.7417 39.5063 8.51484 37.7325C6.15801 35.8609 4.23293 33.5027 2.87109 30.8189Z" fill="#319F43"/>
</g>
<defs>
<clipPath id="clip0_1_4737">
<rect width="42" height="42" fill="white" transform="translate(0 0.500153)"/>
</clipPath>
</defs>
</svg>
